<svg width="18" height="20" viewBox="0 0 18 20" fill="none" xmlns="http://www.w3.org/2000/svg">
<path d="M11.9498 5.70711L6.29289 11.3639C5.90236 11.7544 5.90236 12.3876 6.29289 12.7781C6.68341 13.1687 7.31659 13.1687 7.70709 12.7781L13.364 7.12132C14.5355 5.94975 14.5355 4.05025 13.364 2.87867C12.1924 1.70711 10.2929 1.70711 9.12129 2.87867L3.46446 8.53553C1.51184 10.4881 1.51184 13.6539 3.46446 15.6066C5.41708 17.5592 8.58289 17.5592 10.5355 15.6066L16.1924 9.94973L17.6066 11.3639L11.9498 17.0208C9.21609 19.7544 4.78392 19.7544 2.05025 17.0208C-0.683418 14.2871 -0.683418 9.85504 2.05025 7.12132L7.70709 1.46447C9.65969 -0.488155 12.8256 -0.488155 14.7782 1.46447C16.7308 3.41709 16.7308 6.5829 14.7782 8.53553L9.12129 14.1924C7.94979 15.3639 6.05025 15.3639 4.87868 14.1924C3.7071 13.0208 3.7071 11.1213 4.87868 9.94973L10.5355 4.2929L11.9498 5.70711Z" fill="white"/>
</svg>
