<svg width="20" height="21" viewBox="0 0 20 21" fill="none" xmlns="http://www.w3.org/2000/svg">
<path d="M10.0001 0C12.7615 0 15.0001 2.23858 15.0001 5V11C15.0001 13.7614 12.7615 16 10.0001 16C7.23865 16 5.00008 13.7614 5.00008 11V5C5.00008 2.23858 7.23865 0 10.0001 0ZM0.192379 12.9615L2.15392 12.5692C2.88321 16.2361 6.11888 19 10.0001 19C13.8813 19 17.1169 16.2361 17.8462 12.5692L19.8078 12.9615C18.8961 17.5452 14.8516 21 10.0001 21C5.14858 21 1.104 17.5452 0.192379 12.9615Z" fill="white"/>
</svg>
