<svg width="20" height="22" viewBox="0 0 20 22" fill="none" xmlns="http://www.w3.org/2000/svg">
<path d="M0.5 0C0.58425 0 0.66714 0.02129 0.74096 0.06189L19.2034 10.2162C19.4454 10.3493 19.5337 10.6533 19.4006 10.8953C19.3549 10.9784 19.2865 11.0468 19.2034 11.0925L0.74096 21.2468C0.499 21.3799 0.19497 21.2916 0.0618899 21.0497C0.0212899 20.9758 0 20.893 0 20.8087V0.5C0 0.22386 0.22386 0 0.5 0ZM5.6438 5.04099C4.0051 4.13971 2 5.32527 2 7.19547V7.19547C2 8.55346 3.10086 9.65432 4.45885 9.65432H6C6.55228 9.65432 7 10.102 7 10.6543V10.6543C7 11.2066 6.55228 11.6543 6 11.6543H4.45887C3.10087 11.6543 2 12.7552 2 14.1132V14.1132C2 15.9834 4.00513 17.169 5.64385 16.2677L11.0706 13.283C13.1429 12.1432 13.1429 9.16546 11.0705 8.02568L5.6438 5.04099Z" fill="white"/>
</svg>
